<svg width="19" height="19" viewBox="0 0 19 19" fill="none" xmlns="http://www.w3.org/2000/svg">
<g clip-path="url(#clip0_85_2738)">
<path d="M9.5 18.875C6.87847 18.875 4.66076 17.9677 2.84687 16.1531C1.03299 14.3385 0.125694 12.1208 0.125 9.50001C0.125 7.10417 0.90625 5.02501 2.46875 3.26251C4.03125 1.50001 6.02778 0.471535 8.45833 0.17709C8.68403 0.142368 8.88368 0.172924 9.05729 0.268757C9.2309 0.364591 9.36979 0.490285 9.47396 0.64584C9.57813 0.801396 9.63472 0.983688 9.64375 1.19272C9.65278 1.40174 9.5875 1.6014 9.44792 1.79167C9.15278 2.24306 8.93125 2.72049 8.78333 3.22397C8.63542 3.72744 8.56181 4.25695 8.5625 4.81251C8.5625 6.37501 9.10937 7.70313 10.2031 8.79688C11.2969 9.89063 12.625 10.4375 14.1875 10.4375C14.7257 10.4375 15.2597 10.3594 15.7896 10.2031C16.3194 10.0469 16.7924 9.82987 17.2083 9.55209C17.3993 9.43056 17.5948 9.37431 17.7948 9.38334C17.9948 9.39237 18.1726 9.43994 18.3281 9.52605C18.5017 9.61285 18.6365 9.74306 18.7323 9.91667C18.8281 10.0903 18.8583 10.2986 18.8229 10.5417C18.5799 12.9375 17.5601 14.9254 15.7635 16.5052C13.967 18.0851 11.8792 18.875 9.5 18.875Z" fill="#FFC700"/>
</g>
<defs>
<clipPath id="clip0_85_2738">
<rect width="19" height="19" fill="white"/>
</clipPath>
</defs>
</svg>
