<svg width="14" height="14" viewBox="0 0 14 14" fill="none" xmlns="http://www.w3.org/2000/svg">
<path fill-rule="evenodd" clip-rule="evenodd" d="M7.61852 9.36823C7.45446 9.53209 7.23206 9.62412 7.00019 9.62412C6.76831 9.62412 6.54592 9.53209 6.38185 9.36823L3.08135 6.06889C2.91728 5.90475 2.82514 5.68215 2.8252 5.45006C2.82525 5.21798 2.9175 4.99542 3.08164 4.83135C3.24579 4.66728 3.46839 4.57514 3.70048 4.5752C3.93256 4.57525 4.15512 4.6675 4.31919 4.83164L7.00019 7.51264L9.68119 4.83164C9.84614 4.67218 10.0671 4.58388 10.2965 4.58576C10.526 4.58765 10.7455 4.67956 10.9078 4.84172C11.0701 5.00388 11.1622 5.2233 11.1643 5.45272C11.1664 5.68214 11.0783 5.90321 10.919 6.06831L7.6191 9.36881L7.61852 9.36823Z" fill="black"/>
</svg>
