<svg width="41" height="13" viewBox="0 0 41 13" fill="none" xmlns="http://www.w3.org/2000/svg">
<g clip-path="url(#clip0_65_2874)">
<path d="M2.01729 13H0V4.74139H2.82255V12.1261C2.82255 12.241 2.80171 12.3548 2.76122 12.461C2.72073 12.5671 2.66139 12.6635 2.58659 12.7447C2.5118 12.8259 2.42301 12.8902 2.32532 12.934C2.22764 12.9778 2.12296 13.0002 2.01729 13ZM2.82255 3.00444V0H0V3.00444H2.82255ZM17.2989 12.1261V0H14.4763V13H16.4936C16.7065 12.9995 16.9105 12.9072 17.0608 12.7434C17.2111 12.5796 17.2956 12.3576 17.2956 12.1261M28.8315 3.06944V0H19.2265V3.06944H22.6186V13H24.6359C24.849 13 25.0534 12.9079 25.2041 12.744C25.3548 12.5802 25.4395 12.3579 25.4395 12.1261V3.06944H28.8315ZM12.5454 3.06944V0H8.28501C7.34751 0 6.44842 0.404995 5.78551 1.12589C5.1226 1.84679 4.75018 2.82453 4.75018 3.84403V13H6.76747C6.98031 12.9995 7.18428 12.9072 7.33463 12.7434C7.48497 12.5796 7.56941 12.3576 7.56941 12.1261V8.84722H11.599V6.31945H7.56941V4.30445C7.57029 3.97657 7.69067 3.66245 7.90418 3.43095C8.11769 3.19944 8.40689 3.06944 8.70839 3.06944H12.5454Z" fill="black"/>
<path d="M36.5736 5.43111C36.5615 5.44465 36.547 5.45542 36.5311 5.46277C36.5151 5.47012 36.4979 5.47391 36.4806 5.47391C36.4632 5.47391 36.4461 5.47012 36.4301 5.46277C36.4141 5.45542 36.3997 5.44465 36.3876 5.43111L31.3967 4.47551e-07H34.8518C35.0267 -0.00014925 35.1999 0.0372558 35.3614 0.110069C35.523 0.182882 35.6697 0.289671 35.7932 0.424306L36.8774 1.60514C37.0998 1.84169 37.2693 2.13055 37.3729 2.44952C37.4765 2.76848 37.5115 3.10904 37.4751 3.445C37.3818 4.19624 37.0652 4.89371 36.5736 5.43111ZM38.991 3.90542C38.9411 3.84994 38.8745 3.81595 38.8034 3.80972H38.7884C38.714 3.80681 38.6412 3.83427 38.5843 3.88672C38.5275 3.93916 38.4908 4.0128 38.4813 4.09319C38.3714 4.99253 37.9914 5.82721 37.4004 6.4675L31.395 13H34.8502C35.0251 13.0007 35.1985 12.9636 35.3601 12.8908C35.5217 12.8179 35.6684 12.7108 35.7916 12.5757L40.736 7.19333C40.9052 7.00916 41.0003 6.75945 41.0003 6.4991C41.0003 6.23874 40.9052 5.98904 40.736 5.80486L38.991 3.90542Z" fill="#0091DA"/>
</g>
<defs>
<clipPath id="clip0_65_2874">
<rect width="41" height="13" fill="white"/>
</clipPath>
</defs>
</svg>
