<?xml version="1.0" encoding="UTF-8"?>
<svg id="Layer_2" data-name="Layer 2" xmlns="http://www.w3.org/2000/svg" viewBox="0 0 542.21 521.4">
  <g id="Layer_1-2" data-name="Layer 1">
    <g>
      <path d="m488.28,502.55c-.88-3.2-4.25-6.14-7.71-5.87-3.92.31-2.43-12.61-2.43-15.05,0-6.23-.47-12.63-2.63-18.53-3.93-10.72-11.58-20.11-21.78-25.42-5.3-2.76-11.53-5.09-17.22-1.94-5,2.78-7.62,8.73-11.12,13.02-6.24,7.65-13.87,15.02-22.44,20.3-.22-.43-.44-.85-.63-1.29-.85-1.91-1.53-3.89-2.11-5.89-1.28-4.41-1.67-9.01-2.93-13.41-2.7-9.46-9.35-15.51-18.31-19.04-8.96-3.52-50.39-15.33-61.47-17.9-2.84-.66-5.86,2.04-6.93,4.59-11.98-3.82-24.93-8.37-37.16-6.19-13.34,2.38-22.66,13.86-30.43,24.04-8,10.47-14.23,21.92-19.19,34.11-1.48,3.65-1.15,3.19-4.92,3.78-2.63.41-5.3.63-7.96.72-.05,11.87-.63,23.73-.73,35.61,3.78-.5,7.57-1.03,11.34-1.58,11.43-1.69,22.7-6.81,25.7-19.05.98-3.99.21-8.33,1.96-12.13,1.84-3.99,5.64-6.75,9.35-8.87,8.93-5.1,20.21-7.91,30.39-8.62,6.1-.42,11.77.29,17.17,1.95.69-12.98,3.75-24.54,14.69-33.6,2.92-2.42,7.14,1.76,4.2,4.2-10.38,8.59-12.65,19.29-13.05,31.6,2.33,1.04,4.62,2.26,6.89,3.64.7-12.13,3.51-23.45,14.57-31.23,3.13-2.2,6.1,2.94,2.99,5.12-10.16,7.14-11.65,18.51-11.84,29.88,2.27,1.58,4.5,3.22,6.7,4.89.51-12.71,4.53-28.53,15.49-34.57,3.35-1.85,6.34,3.28,2.99,5.12-10.36,5.7-12.88,22.97-12.58,34.09,14.39,11.67,27.75,24.77,42.63,35.7,13.25,9.73,25.22-1.48,35.11-10.15,7.75-6.8,15.51-13.61,23.26-20.41l1.99,11.57c1.12,6.52,1.42,14.11,5.58,19.56,9.24,12.11,29.31,3.65,38.9-3.73,2.87-2.2,4.7-5.3,3.68-9.03Z"/>
      <path d="m205.46,515.7c0-1.57.01-3.14.03-4.72-3.42-2.57-6.79-5.19-10.89-6.64-5.24-1.85-10.82-3.09-16.24-4.27-11.41-2.48-22.98-3.77-34.64-3.95-1.15,1.46-2.32,2.91-3.53,4.33,22.47.38,45.52,2.55,63.93,14.64.45.2.9.41,1.35.62Z"/>
      <path d="m503.88,134.11c-16.49-7.47-34.93-9.44-52.85-10.01-18.91-.61-38.08.14-56.94,1.55-9.92.74-19.91,1.95-29.55,4.48-9.43,2.48-18.03,6.65-26.72,10.95-1.2.59-2.41,1.16-3.61,1.7-11.87-8.86-26.7-14-42.08-15.53,12.78-23.26,41.76-34.84,67.38-39.04,20.36-3.34,41.09-3.45,61.55-5.96,8.81-1.08,18.19-2.27,25.74-7.35,7.59-5.11,12.07-13.07,12.33-22.24.52-18.93-15.32-31.87-32.11-36.64-18.1-5.14-37.96-4.13-56.04.5-37.03,9.49-70.16,34.06-95.28,62.27-14.21,15.96-25.17,33.65-33,53.51-.43,1.09-.86,2.2-1.3,3.33-4.14,1.96-8.09,4.23-11.77,6.83-6.78,4.78-12.82,10.33-18.16,16.46.12-12.54,2.01-24.91,5.78-36.96,4.53-14.46,11.94-27.43,20.59-39.8,8.47-12.1,17.78-23.63,25.46-36.26,6.31-10.38,17.31-27.64,7.53-39.07-9.03-10.55-28.76-6.77-40.1-2.6-13.41,4.93-25.35,13.51-34.38,24.58-19.57,23.99-27.53,55.76-30.22,86.05-1.63,18.34-.73,36.79,2.29,54.94,1.48,8.89,4.3,17.56,5.53,26.47.67,4.84.68,11.01-1.97,15.46-16.7-14.37-19.85-41.31-23.41-61.58-2.66-15.13-4.8-30.35-6.43-45.63-1.43-13.42-3.54-27.72-16.86-34.52-24.42-12.46-48.74,8.06-52.96,32.19-2.58,14.76.46,29.76,4.71,43.92,3.71,12.37,8.66,24.45,14.7,35.86,11.59,21.87,27.59,41.26,47.27,56.28,4.85,3.7,9.92,7,15.15,10.12,1.8,1.07,10.44,5.46,9.38,8.4-.86,2.39-7.74,1.6-9.43,1.37-5.83-.81-11.88-2.9-17.28-5.18-11.08-4.69-21.11-11.82-29.32-20.58-7.95-8.49-12.53-19.83-21.12-27.7-9.14-8.38-22.53-9.94-31.58-.45-8.35,8.77-9.06,22.21-6.41,33.38,6.53,27.51,32.85,46.1,59.68,50.39,16.16,2.58,32.53,1.25,48.45-2.26,6.13-1.35,12.89-4.6,18.54-.39.1.07.2.16.29.23,7.66,19.3,25.08,33.24,44.63,39.55-.55,2.95-1.1,5.9-1.65,8.86-3.1-.57-6.16-.83-9.13-.64-4.27-1.29-8.76-1.75-13.01.09-.95.41-1.82.95-2.62,1.58-1.42.06-2.85.78-3.87,2.42-6.05,9.69-12.59,21.13-9.61,32.99.01.05.03.1.05.15-.03.22-.06.45-.09.67,1.44,4.99,3.02,9.95,4.75,14.84.34,1.1.74,2.17,1.19,3.23.25.67.49,1.34.74,2,.07.03.15.06.22.1,1.72,3.45,4,6.61,6.79,9.35.23.23.47.42.72.59-2.2,5.44-3.91,9.52-4.72,11.13-13.04,26.06-24.8,53.66-41.57,77.6-.48.68-.96,1.35-1.45,2.03,11,.36,21.94,1.69,32.71,4.04,6,1.31,12.37,2.61,18.06,4.96,2.99,1.24,5.61,3.06,8.18,4.97.39-8.5,1.2-34.24,1.2-34.25.4-7.33.88-14.65,1.52-21.95,1.44-16.36,4.55-32.46,7.56-48.58,11.04-.06,22.08-.1,33.12-.27,6.22-.09,12.34-.5,18.27-1.69,4.18-.46,8.3-1.22,12.28-2.51,10.13-3.28,17.98-10.14,24.73-18.17,1.27-1.52,2.51-3.06,3.76-4.6,5.12-5.09,9.95-10.54,14.47-16.17-.01.09-.02.16-.02.21-2.19,4.16-1.21,9.95,4.66,11.26,16.1,3.57,58.45,12.31,62.05,13.23,5.67,1.44,11.95-4.39,9.84-9.84-13.18-34.04-34.26-64.52-61.97-88.36-1-.86-2.05-1.41-3.12-1.73,6.29-7.23,11.69-15.08,15.75-23.39,2.42-4.95,4.33-10.07,5.85-15.29,3.87,2.11,7.52,4.65,10.88,7.63,9.86,8.77,15.34,19.44,19.24,31.88,4,12.75,8.45,24.82,18.33,34.25,8.94,8.54,20.56,14.36,32.8,16.15,12.23,1.79,28.78.81,35.75-11.18,6.52-11.22.97-25.65-3.55-36.57-9.58-23.09-25.2-42.98-45.18-57.98-11.56-8.68-24.3-14.85-37.86-19.74-8-2.89-21.56-7.77-25.66-16.57-.19-2-.45-4-.76-5.98,13.95-5.49,29.68-6.39,44.17-2.62,16.43,4.28,29.77,14.97,43.32,24.67,14,10.02,29.17,18.99,46.63,20.74,14.09,1.42,29.81-3.6,39.23-14.48,23.38-27.01-1.67-67.69-29.07-80.1Zm-291.09,151.3c-.4,1.3-1.51,2-2.85,1.49,0,0-7.77-2.39-13.34-7.64-5.57-5.24-15.31-16.11-15.9-28.46-.44-9.23,4.16-46.36,20.93-38.46,10.19,4.8,14.51,19.7,15.76,29.82,1.77,14.41-.34,29.45-4.61,43.25Zm19.21,79.21c.41.13.82.25,1.19.35,12.1,3.26,25.1,5.53,37.66,5.49,12.15-.04,18.3-10.17,25.07-18.87,6.15-7.89,11.95-16.02,17.43-24.38.44.56.89,1.12,1.33,1.68-.6,2.32-1.94,4.69-2.81,6.25-3.09,5.56-6.55,10.98-10.1,16.25-6.72,9.96-14.65,19.73-25.22,25.79-13.35,7.65-28.52,6.07-43.1,3.69-1.07-.17-2.14-.35-3.21-.53.09-.21.19-.41.25-.64,1.5-5,1.98-10.04,1.51-15.08Zm14.87-119.6c2.04-11.39,4.86-23.39,10.51-33.58,8.8-15.87,26.25-25.69,44.36-21.09,15.2,3.87,26.67,17.91,23.41,33.96-3.06,15.05-16.71,26.37-28.51,34.89-21.26,15.36-37.92,22.93-47.36,26-1.48.24-2.72-.03-2.99-1.35-2.6-12.8-1.71-26.05.58-38.83Zm-14.98,83.23c.03-.1.06-.19.08-.29,21.5,3.24,43.61-2.8,62.47-13.4,2.17-1.22,4.34-2.51,6.5-3.87.84,1.39,1.75,2.73,2.68,4.04-.4.71-.82,1.41-1.25,2.1-.74.4-1.4,1.06-1.89,2.04-.47.94-.95,1.87-1.45,2.8-4.06,5.35-8.9,10.11-14.08,14.57-4.23,3.64-8.82,8.24-13.76,10.87-5.35,2.85-13.2-.03-18.65-1.57-7.12-2.01-15.25-5.8-23.5-8.64.93-2.89,1.87-5.78,2.85-8.66Zm-29.62,19.66c.06-1.13.1-1.29.13-.46.82-.36,3.41,1.13,4.21,1.41.08.03.15.05.23.08-1.63.17-3.23.47-4.76.95.07-.66.13-1.32.2-1.98Z"/>
      <path d="m339.35,380.81l-11.96-3.7c-.56-.17-1.08-.25-1.57-.25-.49-.15-.99-.31-1.48-.46-3.2-.96-6.23,1.65-6.33,4.82-.13,4.31-.26,8.62-.39,12.93-.09,3.11-.55,6.31,2.01,8.55.38.33.8.6,1.24.84,5-8.39,11.54-15.84,18.49-22.74Z"/>
      <path d="m354.93,385.63c-3.05-.94-6.09-1.89-9.14-2.83-7.04,6.81-13.79,14.11-18.98,22.41,1,.16,1.97.31,2.86.51,4.47,1.02,8.91,2.16,13.33,3.41,5.27,1.49,10.47,3.16,15.62,4.97-1.54-9.45-3.01-18.92-3.7-28.47Z"/>
      <path d="m395.8,398.82c-1.26-.78-2.68-1.3-4.1-1.8-4.35-1.53-8.84-2.74-13.24-4.1-5.81-1.8-11.63-3.6-17.44-5.4.81,9.7,2.4,19.3,3.96,28.91,1.73.66,3.45,1.35,5.17,2.04,8.82-6.19,17.21-12.95,25.65-19.65Z"/>
      <path d="m376.57,421.14c5.24,2.26,10.42,4.67,15.52,7.26,3.41,1.73,7.4-.39,7.52-4.32.14-4.58.32-9.17.43-13.75.06-2.37.12-4.74-.6-6.9-7.55,6-15.07,12.04-22.87,17.71Z"/>
    </g>
    <path d="m80,287.07L0,351.52l148.17,138.59,51.18-76-119.35-127.04Zm-38.52,67.96l40.89-31.96,95.41,93.15-26.07,41.97-110.22-103.16Z"/>
  </g>
</svg>