<svg width="20" height="20" viewBox="0 0 20 20" fill="none" xmlns="http://www.w3.org/2000/svg">
<g clip-path="url(#clip0_85_2778)">
<path d="M10.0002 5.83334C7.70016 5.83334 5.8335 7.70001 5.8335 10C5.8335 12.3 7.70016 14.1667 10.0002 14.1667C12.3002 14.1667 14.1668 12.3 14.1668 10C14.1668 7.70001 12.3002 5.83334 10.0002 5.83334ZM1.66683 10.8333H3.3335C3.79183 10.8333 4.16683 10.4583 4.16683 10C4.16683 9.54168 3.79183 9.16668 3.3335 9.16668H1.66683C1.2085 9.16668 0.833496 9.54168 0.833496 10C0.833496 10.4583 1.2085 10.8333 1.66683 10.8333ZM16.6668 10.8333H18.3335C18.7918 10.8333 19.1668 10.4583 19.1668 10C19.1668 9.54168 18.7918 9.16668 18.3335 9.16668H16.6668C16.2085 9.16668 15.8335 9.54168 15.8335 10C15.8335 10.4583 16.2085 10.8333 16.6668 10.8333ZM9.16683 1.66668V3.33334C9.16683 3.79168 9.54183 4.16668 10.0002 4.16668C10.4585 4.16668 10.8335 3.79168 10.8335 3.33334V1.66668C10.8335 1.20834 10.4585 0.833344 10.0002 0.833344C9.54183 0.833344 9.16683 1.20834 9.16683 1.66668ZM9.16683 16.6667V18.3333C9.16683 18.7917 9.54183 19.1667 10.0002 19.1667C10.4585 19.1667 10.8335 18.7917 10.8335 18.3333V16.6667C10.8335 16.2083 10.4585 15.8333 10.0002 15.8333C9.54183 15.8333 9.16683 16.2083 9.16683 16.6667ZM4.99183 3.81668C4.91474 3.73942 4.82316 3.67813 4.72235 3.63632C4.62154 3.5945 4.51347 3.57297 4.40433 3.57297C4.29519 3.57297 4.18712 3.5945 4.08631 3.63632C3.9855 3.67813 3.89392 3.73942 3.81683 3.81668C3.73958 3.89377 3.67829 3.98535 3.63647 4.08616C3.59465 4.18697 3.57313 4.29504 3.57313 4.40418C3.57313 4.51332 3.59465 4.62139 3.63647 4.7222C3.67829 4.82301 3.73958 4.91458 3.81683 4.99168L4.70016 5.87501C5.02516 6.20001 5.5585 6.20001 5.87516 5.87501C6.19183 5.55001 6.20016 5.01668 5.87516 4.70001L4.99183 3.81668ZM15.3002 14.125C15.2231 14.0478 15.1315 13.9865 15.0307 13.9447C14.9299 13.9028 14.8218 13.8813 14.7127 13.8813C14.6035 13.8813 14.4955 13.9028 14.3946 13.9447C14.2938 13.9865 14.2023 14.0478 14.1252 14.125C14.0479 14.2021 13.9866 14.2937 13.9448 14.3945C13.903 14.4953 13.8815 14.6034 13.8815 14.7125C13.8815 14.8217 13.903 14.9297 13.9448 15.0305C13.9866 15.1313 14.0479 15.2229 14.1252 15.3L15.0085 16.1833C15.3335 16.5083 15.8668 16.5083 16.1835 16.1833C16.2608 16.1063 16.322 16.0147 16.3639 15.9139C16.4057 15.8131 16.4272 15.705 16.4272 15.5958C16.4272 15.4867 16.4057 15.3786 16.3639 15.2778C16.322 15.177 16.2608 15.0854 16.1835 15.0083L15.3002 14.125ZM16.1835 4.99168C16.2608 4.91458 16.322 4.82301 16.3639 4.7222C16.4057 4.62139 16.4272 4.51332 16.4272 4.40418C16.4272 4.29504 16.4057 4.18697 16.3639 4.08616C16.322 3.98535 16.2608 3.89377 16.1835 3.81668C16.1064 3.73942 16.0148 3.67813 15.914 3.63632C15.8132 3.5945 15.7051 3.57297 15.596 3.57297C15.4869 3.57297 15.3788 3.5945 15.278 3.63632C15.1772 3.67813 15.0856 3.73942 15.0085 3.81668L14.1252 4.70001C13.8002 5.02501 13.8002 5.55834 14.1252 5.87501C14.4502 6.19168 14.9835 6.20001 15.3002 5.87501L16.1835 4.99168ZM5.87516 15.3C5.95242 15.2229 6.01371 15.1313 6.05552 15.0305C6.09734 14.9297 6.11887 14.8217 6.11887 14.7125C6.11887 14.6034 6.09734 14.4953 6.05552 14.3945C6.01371 14.2937 5.95242 14.2021 5.87516 14.125C5.79807 14.0478 5.70649 13.9865 5.60568 13.9447C5.50487 13.9028 5.3968 13.8813 5.28766 13.8813C5.17852 13.8813 5.07045 13.9028 4.96964 13.9447C4.86883 13.9865 4.77726 14.0478 4.70016 14.125L3.81683 15.0083C3.49183 15.3333 3.49183 15.8667 3.81683 16.1833C4.14183 16.5 4.67516 16.5083 4.99183 16.1833L5.87516 15.3Z" fill="#FFC700"/>
</g>
<defs>
<clipPath id="clip0_85_2778">
<rect width="20" height="20" fill="white"/>
</clipPath>
</defs>
</svg>
